<svg id="Ebene_1" data-name="Ebene 1" xmlns="http://www.w3.org/2000/svg" viewBox="0 0 248.28 282.23"><defs><style>.cls-1{fill:#fff;}</style></defs><title>1</title><path class="cls-1" d="M164,15.23a2.86,2.86,0,0,1,3.29.07,2.73,2.73,0,0,1,.25.23,79.87,79.87,0,0,1,8.14-4.15A20.44,20.44,0,0,0,153.28.4,47.89,47.89,0,0,0,164,15.23Z"/><path class="cls-1" d="M125,32.6A50.84,50.84,0,0,1,108.42,50a83.51,83.51,0,0,0,16.81,7.38,5.71,5.71,0,0,1,6.4-3.42c5.13-13.39,15-24.56,31.19-35.46a2.87,2.87,0,0,1,.14-2.15A49.08,49.08,0,0,1,151.76.77a20.52,20.52,0,0,0-13.39,27.86h0l.16.56a4.8,4.8,0,0,1-5.84,6l-.56-.14h0A26.53,26.53,0,0,0,125,32.6Z"/><path class="cls-1" d="M107,49.14a48.72,48.72,0,0,0,16.47-16.79,26.56,26.56,0,0,0-25,11A87,87,0,0,0,107,49.14Z"/><path class="cls-1" d="M97.62,44.55A26.4,26.4,0,0,0,94,53.9,41.23,41.23,0,0,0,105.45,50,90.12,90.12,0,0,1,97.62,44.55Z"/><path class="cls-1" d="M168.19,18.68a36.47,36.47,0,0,0,9.36,4.93,19.87,19.87,0,0,0,.26-3.11,20.46,20.46,0,0,0-1.55-7.76,79.77,79.77,0,0,0-8,4.06A2.89,2.89,0,0,1,168.19,18.68Z"/><path class="cls-1" d="M177.28,25.12a38.54,38.54,0,0,1-10-5.25,2.86,2.86,0,0,1-3.45,0c-.06,0-.11-.1-.17-.15-15.88,10.69-25.57,21.62-30.61,34.67a5.88,5.88,0,0,1,1.75,1.29,5.75,5.75,0,0,1,1.46,4.37c3.59.74,7,1.36,10.1,1.88a26.07,26.07,0,0,0,.22-3.32A26.44,26.44,0,0,0,143.39,46h0l-.16-.56a4.8,4.8,0,0,1,5.84-6l.56.14v0a20.49,20.49,0,0,0,27.66-14.49Z"/><path class="cls-1" d="M129.94,65.31c-.57,2.77-1,5.47-1.27,8a114.06,114.06,0,0,1,32.49,21,2.86,2.86,0,0,1,2.71-.18A74.32,74.32,0,0,1,178.62,81a26.54,26.54,0,0,0-27.22-5.29h0l-.56.2a5.1,5.1,0,0,1-6.45-6.66l.21-.55h0a26.34,26.34,0,0,0,1.53-5.26c-3.16-.52-6.57-1.15-10.2-1.9a5.53,5.53,0,0,1-1.51,2.31A5.68,5.68,0,0,1,129.94,65.31Z"/><path class="cls-1" d="M164.14,99.2a2.88,2.88,0,0,1-2.51.2,61,61,0,0,0-7.39,13.53c-1.51,3.85-2.89,7.83-4.15,11.89a26.5,26.5,0,0,0,30.1-6.32A125.88,125.88,0,0,0,164.14,99.2Z"/><path class="cls-1" d="M165,95.1a2.86,2.86,0,0,1,.16,3,128.38,128.38,0,0,1,16,19.22,26.48,26.48,0,0,0-1.5-35.25A72.5,72.5,0,0,0,165,95.1Z"/><path class="cls-1" d="M152.84,112.38a62.19,62.19,0,0,1,7.59-13.87,2.86,2.86,0,0,1-.29-3.11A112.68,112.68,0,0,0,128.5,74.86c-.35,3.52-.49,6.64-.53,9.07.47-.15.95-.29,1.41-.46h0l.55-.19a5.11,5.11,0,0,1,6.46,6.66l-.21.55h0a26.51,26.51,0,0,0,12.53,33.69C150,120.15,151.35,116.2,152.84,112.38Z"/><path class="cls-1" d="M127.05,74.27A95.64,95.64,0,0,0,118,71.09c-18.57-5.46-33.37-5.27-43.6-3.69a2.94,2.94,0,0,1-.53,1.43A2.9,2.9,0,0,1,71.69,70a57.62,57.62,0,0,0-1,14.19,14.29,14.29,0,0,0,4.16.62A14.67,14.67,0,0,0,88.81,74.71h0l0-.11c.06-.16.1-.34.15-.51a4.81,4.81,0,0,1,8.09-2l.4.41h0a26.4,26.4,0,0,0,29,11.84C126.5,81.73,126.64,78.24,127.05,74.27Z"/><path class="cls-1" d="M68.69,67a2.92,2.92,0,0,1,.55-1.55,2.85,2.85,0,0,1,2.34-1.15,36.33,36.33,0,0,1,4.17-8.75c-.28,0-.56-.05-.84-.05a14.64,14.64,0,0,0-14.64,14A68,68,0,0,1,68.69,67Z"/><path class="cls-1" d="M73.09,64.72l.16.1a2.82,2.82,0,0,1,.89,1.11c10.41-1.62,25.45-1.81,44.28,3.72,3,.9,6,1.94,8.81,3.07.3-2.46.7-5.08,1.25-7.76a5.63,5.63,0,0,1-3.63-6.12,84.55,84.55,0,0,1-17.9-8,42.4,42.4,0,0,1-13.19,4.6c-.07.59-.13,1.18-.16,1.77h0l-.16.56a4.8,4.8,0,0,1-8,2.15l-.34-.34-.15-.16h0a14.65,14.65,0,0,0-7.42-3.75A35.85,35.85,0,0,0,73.09,64.72Z"/><path class="cls-1" d="M70.18,69.63a1.81,1.81,0,0,1-.33-.2,2.82,2.82,0,0,1-.84-1,65.75,65.75,0,0,0-8.73,2.65,14.66,14.66,0,0,0,8.9,12.54A59.67,59.67,0,0,1,70.18,69.63Z"/><path class="cls-1" d="M78,193.27a4.9,4.9,0,0,1-2.8-3.66,48.92,48.92,0,0,1-.62-9.46,48.92,48.92,0,0,1,.62-9.46A4.9,4.9,0,0,1,78,167c1.45-.64,4-1,7.54-1s6.13.32,7.58,1a4.9,4.9,0,0,1,2.8,3.66,48.92,48.92,0,0,1,.62,9.46,48.92,48.92,0,0,1-.62,9.46,4.9,4.9,0,0,1-2.8,3.66q-2.17,1-7.58,1C82,194.23,79.47,193.91,78,193.27Zm13.86-1.4a3.7,3.7,0,0,0,2.22-3,46.43,46.43,0,0,0,.54-8.76,46.43,46.43,0,0,0-.54-8.76,3.7,3.7,0,0,0-2.22-3,21.92,21.92,0,0,0-6.32-.6,21.92,21.92,0,0,0-6.32.6,3.7,3.7,0,0,0-2.22,3,46.54,46.54,0,0,0-.54,8.74,46.54,46.54,0,0,0,.54,8.74,3.7,3.7,0,0,0,2.22,3,21.92,21.92,0,0,0,6.32.6A21.92,21.92,0,0,0,91.88,191.87Z"/><path class="cls-1" d="M103.68,166.39h11.64a9.34,9.34,0,0,1,5,1.08,4.65,4.65,0,0,1,2.1,2.82,19.05,19.05,0,0,1,.44,4.5,17.52,17.52,0,0,1-.46,4.44,4.82,4.82,0,0,1-2.12,2.82,9.14,9.14,0,0,1-5,1.1H105.6v10.76h-1.92Zm11.28,15a8.47,8.47,0,0,0,4-.74,3.32,3.32,0,0,0,1.66-2.08,15.3,15.3,0,0,0,.36-3.78,15.55,15.55,0,0,0-.36-3.82,3.35,3.35,0,0,0-1.64-2.08,8.32,8.32,0,0,0-4-.74h-9.4v13.24Z"/><path class="cls-1" d="M129,193.91V166.39h17.24v1.76H130.92v11h13.44v1.76H130.92v11.28h15.32v1.76Z"/><path class="cls-1" d="M170.84,193.91l-16.64-24H154v24h-1.88V166.39h1.92l16.6,23.92h.16V166.39h1.84v27.52Z"/><path class="cls-1" d="M0,237.91V210.39H7v27.52Z"/><path class="cls-1" d="M28.2,237.91l-9.52-15.72h-.2v15.72H11.84V210.39H19l8.84,14.28H28V210.39h6.68v27.52Z"/><path class="cls-1" d="M45,237.91v-21.6H37.4v-5.92H59.6v5.92H52v21.6Z"/><path class="cls-1" d="M62.32,237.91V210.39H81.84V216H69.28v5.16H79.92v5.64H69.28v5.44H81.84v5.64Z"/><path class="cls-1" d="M97,227.11v-5.28h10.28v15.48c-1.39.27-3,.49-4.78.66s-3.38.26-4.74.26a21.21,21.21,0,0,1-7.88-1.1,6.22,6.22,0,0,1-3.52-4,30.82,30.82,0,0,1-1-9,28.92,28.92,0,0,1,1-8.62,6.84,6.84,0,0,1,3.58-4.2q2.6-1.26,7.76-1.26a48.09,48.09,0,0,1,5.88.36,30.58,30.58,0,0,1,3.56.56v5.28a60.62,60.62,0,0,0-6.88-.56,23,23,0,0,0-5.42.42,2.78,2.78,0,0,0-1.94,2.06,24.6,24.6,0,0,0-.48,6,30.51,30.51,0,0,0,.36,5.62,3.29,3.29,0,0,0,1.5,2.34,8,8,0,0,0,3.74.64q1.44,0,2.76-.12v-5.52Z"/><path class="cls-1" d="M127.48,237.91l-3.6-9.64H119v9.64h-7V210.39h13.2a12.27,12.27,0,0,1,5.74,1.06,5.19,5.19,0,0,1,2.56,2.92,16.31,16.31,0,0,1,.62,5,15.27,15.27,0,0,1-.74,5,5.16,5.16,0,0,1-2.94,3.08l4.24,10.48Zm-1.78-15.4a1.64,1.64,0,0,0,1.18-.9,6.39,6.39,0,0,0,.28-2.22,7.37,7.37,0,0,0-.24-2.26,1.51,1.51,0,0,0-1.14-.9,13.42,13.42,0,0,0-3.06-.24H119v6.76h3.6A13.42,13.42,0,0,0,125.7,222.51Z"/><path class="cls-1" d="M155.8,237.91l-1.64-5.2h-9.8l-1.56,5.2h-7l8.8-27.52h9.44l8.8,27.52Zm-6.48-21.36h-.2L146,227.07h6.56Z"/><path class="cls-1" d="M168.84,237.91v-21.6h-7.6v-5.92h22.2v5.92H175.8v21.6Z"/><path class="cls-1" d="M186.08,237.91V210.39h7v27.52Z"/><path class="cls-1" d="M201,237a5.53,5.53,0,0,1-3.08-3.9,44.31,44.31,0,0,1-.62-9,44.31,44.31,0,0,1,.62-9,5.53,5.53,0,0,1,3.08-3.9q2.46-1.22,8.26-1.22c3.86,0,6.62.41,8.26,1.22a5.48,5.48,0,0,1,3.06,3.9,46.28,46.28,0,0,1,.6,9,46.28,46.28,0,0,1-.6,9,5.48,5.48,0,0,1-3.06,3.9c-1.64.81-4.4,1.22-8.26,1.22S202.62,237.82,201,237Zm11.74-4.84a2.39,2.39,0,0,0,1.12-1.94,48.29,48.29,0,0,0,.24-6.08,48.29,48.29,0,0,0-.24-6.08,2.39,2.39,0,0,0-1.12-1.94,9.42,9.42,0,0,0-3.48-.42,9.72,9.72,0,0,0-3.52.42,2.36,2.36,0,0,0-1.16,2,76.12,76.12,0,0,0,0,12.08,2.36,2.36,0,0,0,1.16,2,9.72,9.72,0,0,0,3.52.42A9.42,9.42,0,0,0,212.72,232.17Z"/><path class="cls-1" d="M241.76,237.91l-9.52-15.72H232v15.72H225.4V210.39h7.16l8.84,14.28h.2V210.39h6.68v27.52Z"/><path class="cls-1" d="M105.28,281.91v-13H88.6v13H86.68V254.39H88.6v12.72h16.68V254.39h1.92v27.52Z"/><path class="cls-1" d="M135.36,254.39v15.68a34.57,34.57,0,0,1-.62,7.74,4.93,4.93,0,0,1-2.72,3.42c-1.4.67-3.68,1-6.82,1s-5.46-.33-6.86-1a5,5,0,0,1-2.74-3.42,33.14,33.14,0,0,1-.64-7.74V254.39h1.88v16.92a25.36,25.36,0,0,0,.48,5.88,3.65,3.65,0,0,0,2.2,2.54,15.7,15.7,0,0,0,5.68.74,15.37,15.37,0,0,0,5.62-.74,3.61,3.61,0,0,0,2.16-2.52,26.19,26.19,0,0,0,.46-5.9V254.39Z"/><path class="cls-1" d="M143.08,254.39h12.4q3.84,0,5.4,1.78a7.51,7.51,0,0,1,1.56,5.1q0,5.6-4.68,6.48v.16q3,.48,4,2.3a9.08,9.08,0,0,1,1,4.5,8.14,8.14,0,0,1-1.58,5.22c-1.06,1.32-3.06,2-6,2H143.08Zm16,11.26a5.4,5.4,0,0,0,1.44-4,6,6,0,0,0-1.2-4.2c-.8-.85-2.26-1.28-4.36-1.28H145v10.92h10A5.6,5.6,0,0,0,159.08,265.65Zm.48,13.16a6.09,6.09,0,0,0,1.28-4.3,6,6,0,0,0-1.36-4.32,6,6,0,0,0-4.4-1.36H145v11.32h10.08C157.21,280.15,158.71,279.7,159.56,278.81Z"/></svg>